<svg width="862" height="862" viewBox="0 0 862 862" fill="none" xmlns="http://www.w3.org/2000/svg">
<path d="M520 429C520 478.706 479.706 519 430 519C380.294 519 340 478.706 340 429C340 379.294 380.294 339 430 339C479.706 339 520 379.294 520 429ZM375.687 429C375.687 458.996 400.004 483.313 430 483.313C459.996 483.313 484.313 458.996 484.313 429C484.313 399.004 459.996 374.687 430 374.687C400.004 374.687 375.687 399.004 375.687 429Z" fill="white"/>
<path d="M481 165C481 192.614 458.614 215 431 215C403.386 215 381 192.614 381 165C381 137.386 403.386 115 431 115C458.614 115 481 137.386 481 165ZM409.967 165C409.967 176.616 419.384 186.033 431 186.033C442.616 186.033 452.033 176.616 452.033 165C452.033 153.384 442.616 143.967 431 143.967C419.384 143.967 409.967 153.384 409.967 165Z" fill="white"/>
<rect x="414" y="210" width="33" height="134" fill="white"/>
<path d="M179 375C206.614 375 229 397.386 229 425C229 452.614 206.614 475 179 475C151.386 475 129 452.614 129 425C129 397.386 151.386 375 179 375ZM179 446.033C190.616 446.033 200.033 436.616 200.033 425C200.033 413.384 190.616 403.967 179 403.967C167.384 403.967 157.967 413.384 157.967 425C157.967 436.616 167.384 446.033 179 446.033Z" fill="white"/>
<rect x="224" y="442" width="33" height="134" transform="rotate(-90 224 442)" fill="white"/>
<path d="M683 375C655.386 375 633 397.386 633 425C633 452.614 655.386 475 683 475C710.614 475 733 452.614 733 425C733 397.386 710.614 375 683 375ZM683 446.033C671.384 446.033 661.967 436.616 661.967 425C661.967 413.384 671.384 403.967 683 403.967C694.616 403.967 704.033 413.384 704.033 425C704.033 436.616 694.616 446.033 683 446.033Z" fill="white"/>
<rect width="33" height="134" transform="matrix(0 -1 -1 0 638 442)" fill="white"/>
<path d="M657.283 568.572C637.757 549.046 606.098 549.046 586.572 568.572C567.046 588.098 567.046 619.757 586.572 639.283C606.098 658.809 637.757 658.809 657.283 639.283C676.809 619.757 676.809 588.098 657.283 568.572ZM607.055 618.8C598.841 610.586 598.841 597.269 607.055 589.055C615.269 580.841 628.586 580.841 636.8 589.055C645.014 597.269 645.014 610.586 636.8 618.8C628.586 627.014 615.269 627.014 607.055 618.8Z" fill="white"/>
<rect width="33" height="134" transform="matrix(0.707107 -0.707107 -0.707107 -0.707107 578.087 584.129)" fill="white"/>
<path d="M193.355 568.572C212.882 549.046 244.54 549.046 264.066 568.572C283.592 588.098 283.592 619.757 264.066 639.283C244.54 658.809 212.882 658.809 193.355 639.283C173.829 619.757 173.829 588.098 193.355 568.572ZM243.583 618.8C251.797 610.586 251.797 597.269 243.583 589.055C235.369 580.841 222.052 580.841 213.838 589.055C205.624 597.269 205.624 610.586 213.838 618.8C222.052 627.014 235.369 627.014 243.583 618.8Z" fill="white"/>
<rect x="272.551" y="584.129" width="33" height="134" transform="rotate(-135 272.551 584.129)" fill="white"/>
<path d="M662.283 298.066C642.757 317.592 611.098 317.592 591.572 298.066C572.046 278.54 572.046 246.882 591.572 227.355C611.098 207.829 642.757 207.829 662.283 227.355C681.809 246.882 681.809 278.54 662.283 298.066ZM612.055 247.838C603.841 256.052 603.841 269.369 612.055 277.583C620.269 285.797 633.586 285.797 641.8 277.583C650.014 269.369 650.014 256.052 641.8 247.838C633.586 239.624 620.269 239.624 612.055 247.838Z" fill="white"/>
<rect x="583.087" y="282.51" width="33" height="134" transform="rotate(45 583.087 282.51)" fill="white"/>
<path d="M198.355 298.066C217.882 317.592 249.54 317.592 269.066 298.066C288.592 278.54 288.592 246.882 269.066 227.355C249.54 207.829 217.882 207.829 198.355 227.355C178.829 246.882 178.829 278.54 198.355 298.066ZM248.583 247.838C256.797 256.052 256.797 269.369 248.583 277.583C240.369 285.797 227.052 285.797 218.838 277.583C210.624 269.369 210.624 256.052 218.838 247.838C227.052 239.624 240.369 239.624 248.583 247.838Z" fill="white"/>
<rect width="33" height="134" transform="matrix(-0.707107 0.707107 0.707107 0.707107 277.551 282.51)" fill="white"/>
<path d="M340 425H373.478L375 858.5L357 856L340 852.5V425Z" fill="white"/>
<path d="M413 508H446V861.787L438 862L429.5 862L421 862L413 861.633V508Z" fill="white"/>
<path d="M487 431H520V854.489L503.5 857.308L487 859V431Z" fill="white"/>
</svg>
