<svg width="20" height="20" viewBox="0 0 20 20" fill="none" xmlns="http://www.w3.org/2000/svg">
<g clip-path="url(#clip0_35_30)">
<path d="M9.53674e-06 5.83334C-0.00062561 5.72367 0.0203953 5.61495 0.0618668 5.51342C0.103336 5.41189 0.164442 5.31954 0.241676 5.24168C0.319145 5.16357 0.411312 5.10157 0.512861 5.05927C0.61441 5.01696 0.723333 4.99518 0.833342 4.99518C0.943352 4.99518 1.05227 5.01696 1.15382 5.05927C1.25537 5.10157 1.34754 5.16357 1.42501 5.24168L8.23334 12.05C8.70209 12.5182 9.33751 12.7811 10 12.7811C10.6625 12.7811 11.2979 12.5182 11.7667 12.05L18.575 5.24168C18.7319 5.08476 18.9448 4.9966 19.1667 4.9966C19.3886 4.9966 19.6014 5.08476 19.7583 5.24168C19.9153 5.3986 20.0034 5.61143 20.0034 5.83334C20.0034 6.05526 19.9153 6.26809 19.7583 6.42501L12.95 13.2333C12.563 13.6214 12.1032 13.9292 11.597 14.1393C11.0907 14.3493 10.5481 14.4575 10 14.4575C9.45195 14.4575 8.90927 14.3493 8.40306 14.1393C7.89685 13.9292 7.43706 13.6214 7.05001 13.2333L0.241676 6.42501C0.164442 6.34714 0.103336 6.2548 0.0618668 6.15327C0.0203953 6.05173 -0.00062561 5.94302 9.53674e-06 5.83334Z" fill="#353437"/>
</g>
<defs>
<clipPath id="clip0_35_30">
<rect width="20" height="20" fill="white" transform="matrix(0 1 -1 0 20 0)"/>
</clipPath>
</defs>
</svg>
