<svg width="20" height="20" viewBox="0 0 20 20" fill="none" xmlns="http://www.w3.org/2000/svg">
<g clip-path="url(#clip0_35_30)">
<path d="M20 14.1667C20.0006 14.2763 19.9796 14.385 19.9381 14.4866C19.8967 14.5881 19.8356 14.6805 19.7583 14.7583C19.6809 14.8364 19.5887 14.8984 19.4871 14.9407C19.3856 14.983 19.2767 15.0048 19.1667 15.0048C19.0566 15.0048 18.9477 14.983 18.8462 14.9407C18.7446 14.8984 18.6525 14.8364 18.575 14.7583L11.7667 7.94999C11.2979 7.48182 10.6625 7.21886 9.99999 7.21886C9.33749 7.21886 8.70208 7.48182 8.23333 7.94999L1.42499 14.7583C1.26807 14.9152 1.05524 15.0034 0.833325 15.0034C0.611407 15.0034 0.398578 14.9152 0.241658 14.7583C0.0847386 14.6014 -0.00341797 14.3886 -0.00341797 14.1667C-0.00341797 13.9447 0.0847386 13.7319 0.241658 13.575L7.04999 6.76666C7.43704 6.37863 7.89683 6.07077 8.40304 5.86072C8.90925 5.65067 9.45193 5.54254 9.99999 5.54254C10.5481 5.54254 11.0907 5.65067 11.5969 5.86072C12.1031 6.07077 12.5629 6.37863 12.95 6.76666L19.7583 13.575C19.8356 13.6529 19.8967 13.7452 19.9381 13.8467C19.9796 13.9483 20.0006 14.057 20 14.1667Z" fill="#353437"/>
</g>
<defs>
<clipPath id="clip0_35_30">
<rect width="20" height="20" fill="white" transform="matrix(0 -1 1 0 0 20)"/>
</clipPath>
</defs>
</svg>
