<svg width="20" height="20" viewBox="0 0 20 20" fill="none" xmlns="http://www.w3.org/2000/svg">
<g clip-path="url(#clip0_35_30)">
<path d="M14.1667 9.53674e-06C14.2764 -0.00062561 14.3851 0.0203953 14.4866 0.0618668C14.5882 0.103336 14.6805 0.164442 14.7584 0.241676C14.8365 0.319145 14.8985 0.411312 14.9408 0.512861C14.9831 0.61441 15.0049 0.723333 15.0049 0.833342C15.0049 0.943352 14.9831 1.05227 14.9408 1.15382C14.8985 1.25537 14.8365 1.34754 14.7584 1.42501L7.95005 8.23334C7.48188 8.70209 7.21892 9.33751 7.21892 10C7.21892 10.6625 7.48188 11.2979 7.95005 11.7667L14.7584 18.575C14.9153 18.7319 15.0035 18.9448 15.0035 19.1667C15.0035 19.3886 14.9153 19.6014 14.7584 19.7583C14.6015 19.9153 14.3886 20.0034 14.1667 20.0034C13.9448 20.0034 13.732 19.9153 13.5751 19.7583L6.76672 12.95C6.37869 12.563 6.07083 12.1032 5.86078 11.597C5.65073 11.0907 5.5426 10.5481 5.5426 10C5.5426 9.45195 5.65073 8.90927 5.86078 8.40306C6.07083 7.89685 6.37869 7.43706 6.76672 7.05001L13.5751 0.241676C13.6529 0.164442 13.7453 0.103336 13.8468 0.0618668C13.9483 0.0203953 14.057 -0.00062561 14.1667 9.53674e-06Z" fill="#353437"/>
</g>
<defs>
<clipPath id="clip0_35_30">
<rect width="20" height="20" fill="white" transform="matrix(-1 0 0 -1 20 20)"/>
</clipPath>
</defs>
</svg>
