<svg width="12" height="12" viewBox="0 0 12 12" fill="none" xmlns="http://www.w3.org/2000/svg">
<g clip-path="url(#clip0_35_35)">
<path d="M6.966 2C7.37272 2.0004 7.76267 2.16214 8.05026 2.44974C8.33786 2.73733 8.4996 3.12728 8.5 3.534C8.5 3.66661 8.55268 3.79379 8.64645 3.88755C8.74022 3.98132 8.86739 4.034 9 4.034C9.13261 4.034 9.25979 3.98132 9.35355 3.88755C9.44732 3.79379 9.5 3.66661 9.5 3.534V3.5C9.5 3.4905 9.5 3.482 9.5 3.4725C9.48331 2.81136 9.20907 2.18289 8.73572 1.72103C8.26237 1.25916 7.62735 1.00044 6.966 1H6.5V0.5C6.5 0.367392 6.44732 0.240215 6.35355 0.146447C6.25979 0.0526784 6.13261 0 6 0C5.86739 0 5.74022 0.0526784 5.64645 0.146447C5.55268 0.240215 5.5 0.367392 5.5 0.5V1H5.034C4.43266 1.00064 3.85114 1.21512 3.3934 1.60509C2.93565 1.99506 2.6315 2.53511 2.53533 3.12871C2.43915 3.72231 2.55721 4.33077 2.8684 4.84533C3.17959 5.35989 3.66363 5.74701 4.234 5.9375L5.5 6.36V10H5.034C4.62728 9.9996 4.23733 9.83786 3.94974 9.55026C3.66214 9.26267 3.5004 8.87272 3.5 8.466C3.5 8.33339 3.44732 8.20621 3.35355 8.11245C3.25979 8.01868 3.13261 7.966 3 7.966C2.86739 7.966 2.74021 8.01868 2.64645 8.11245C2.55268 8.20621 2.5 8.33339 2.5 8.466V8.5C2.5 8.5095 2.5 8.518 2.5 8.5275C2.51669 9.18864 2.79093 9.81711 3.26428 10.279C3.73763 10.7408 4.37265 10.9996 5.034 11H5.5V11.5C5.5 11.6326 5.55268 11.7598 5.64645 11.8536C5.74022 11.9473 5.86739 12 6 12C6.13261 12 6.25979 11.9473 6.35355 11.8536C6.44732 11.7598 6.5 11.6326 6.5 11.5V11H6.966C7.56734 10.9994 8.14886 10.7849 8.6066 10.3949C9.06435 10.0049 9.3685 9.46489 9.46467 8.87129C9.56085 8.27769 9.4428 7.66923 9.13161 7.15467C8.82041 6.64011 8.33637 6.25299 7.766 6.0625L6.5 5.64V2H6.966ZM7.451 7.0105C7.79671 7.12556 8.09018 7.35992 8.27886 7.67162C8.46754 7.98332 8.53912 8.352 8.48077 8.71166C8.42242 9.07131 8.23796 9.39845 7.96041 9.63451C7.68287 9.87057 7.33036 10.0001 6.966 10H6.5V6.6935L7.451 7.0105ZM5.5 5.3065L4.55 4.9895C4.20437 4.87446 3.91096 4.64019 3.72227 4.32859C3.53358 4.017 3.46193 3.64843 3.52015 3.28884C3.57837 2.92925 3.76265 2.60211 4.04002 2.36597C4.31738 2.12983 4.66973 2.0001 5.034 2H5.5V5.3065Z" fill="#353437"/>
</g>
<defs>
<clipPath id="clip0_35_35">
<rect width="12" height="12" fill="white"/>
</clipPath>
</defs>
</svg>
