<svg  viewBox="0 0 15 14" fill="none" xmlns="http://www.w3.org/2000/svg">
<path d="M14.5418 5.25037C13.9778 4.32679 13.2663 3.50181 12.4357 2.80815L14.185 1.0588C14.2988 0.94097 14.3618 0.783152 14.3604 0.61934C14.359 0.455527 14.2933 0.298828 14.1774 0.18299C14.0616 0.0671533 13.9049 0.0014471 13.7411 2.36179e-05C13.5773 -0.00139987 13.4194 0.0615733 13.3016 0.17538L11.3992 2.0803C10.2199 1.37982 8.87163 1.01473 7.5 1.02444C3.63206 1.02444 1.42787 3.67221 0.458234 5.25037C0.158675 5.73489 0 6.29326 0 6.8629C0 7.43254 0.158675 7.99092 0.458234 8.47543C1.02225 9.39901 1.73369 10.224 2.56433 10.9176L0.814977 12.667C0.755305 12.7246 0.707709 12.7936 0.674965 12.8698C0.642222 12.946 0.624987 13.028 0.624266 13.111C0.623545 13.1939 0.639353 13.2762 0.670767 13.353C0.702181 13.4298 0.748572 13.4995 0.807233 13.5582C0.865894 13.6168 0.935651 13.6632 1.01243 13.6946C1.08921 13.726 1.17148 13.7419 1.25444 13.7411C1.3374 13.7404 1.41938 13.7232 1.4956 13.6904C1.57183 13.6577 1.64077 13.6101 1.6984 13.5504L3.60519 11.6436C4.78305 12.344 6.12968 12.7097 7.5 12.7014C11.3679 12.7014 13.5721 10.0536 14.5418 8.47543C14.8413 7.99092 15 7.43254 15 6.8629C15 6.29326 14.8413 5.73489 14.5418 5.25037ZM1.52284 7.8213C1.34487 7.53331 1.2506 7.20145 1.2506 6.8629C1.2506 6.52436 1.34487 6.1925 1.52284 5.90451C2.35628 4.55126 4.23996 2.27398 7.5 2.27398C8.53729 2.26817 9.56001 2.51816 10.4776 3.00183L9.21999 4.25949C8.62017 3.86127 7.90104 3.68283 7.18464 3.75446C6.46823 3.82609 5.79867 4.14337 5.28957 4.65247C4.78047 5.16157 4.46318 5.83113 4.39156 6.54754C4.31993 7.26394 4.49836 7.98307 4.89659 8.58289L3.45337 10.0261C2.6881 9.40741 2.03505 8.66158 1.52284 7.8213ZM9.37431 6.8629C9.37431 7.36 9.17684 7.83674 8.82533 8.18824C8.47383 8.53974 7.9971 8.73721 7.5 8.73721C7.22167 8.73613 6.9472 8.67205 6.69717 8.54978L9.18688 6.06007C9.30915 6.31011 9.37323 6.58458 9.37431 6.8629ZM5.62569 6.8629C5.62569 6.3658 5.82317 5.88907 6.17467 5.53757C6.52617 5.18607 7.0029 4.9886 7.5 4.9886C7.77833 4.98967 8.0528 5.05375 8.30283 5.17603L5.81313 7.66573C5.69085 7.4157 5.62677 7.14123 5.62569 6.8629ZM13.4772 7.8213C12.6437 9.17455 10.76 11.4518 7.5 11.4518C6.46271 11.4576 5.43999 11.2076 4.52235 10.724L5.78001 9.46631C6.37983 9.86454 7.09896 10.043 7.81536 9.97134C8.53177 9.89972 9.20133 9.58243 9.71043 9.07333C10.2195 8.56423 10.5368 7.89467 10.6084 7.17826C10.6801 6.46186 10.5016 5.74273 10.1034 5.14291L11.5466 3.6997C12.3119 4.3184 12.965 5.06422 13.4772 5.90451C13.6551 6.1925 13.7494 6.52436 13.7494 6.8629C13.7494 7.20145 13.6551 7.53331 13.4772 7.8213Z" fill="#353437"/>
</svg>
