<svg width="15" height="12" viewBox="0 0 15 12" fill="none" xmlns="http://www.w3.org/2000/svg">
<path d="M14.8884 5.11326C14.3397 3.91322 12.1877 0 7.50011 0C2.81249 0 0.660562 3.91322 0.111797 5.11326C0.0381319 5.27407 0 5.44888 0 5.62577C0 5.80266 0.0381319 5.97746 0.111797 6.13828C0.660562 7.33706 2.81249 11.2503 7.50011 11.2503C12.1877 11.2503 14.3397 7.33706 14.8884 6.13703C14.9619 5.97639 15 5.80181 15 5.62514C15 5.44848 14.9619 5.27389 14.8884 5.11326ZM7.50011 10.0003C3.55814 10.0003 1.71871 6.64642 1.24995 5.63202C1.71871 4.60387 3.55814 1.25003 7.50011 1.25003C11.4327 1.25003 13.2728 4.58949 13.7503 5.62514C13.2728 6.6608 11.4327 10.0003 7.50011 10.0003Z" fill="#353437"/>
<path d="M7.50008 2.50006C6.882 2.50006 6.2778 2.68334 5.76388 3.02673C5.24996 3.37012 4.84941 3.85819 4.61288 4.42922C4.37635 5.00026 4.31447 5.62861 4.43505 6.23481C4.55563 6.84102 4.85327 7.39786 5.29032 7.83491C5.72737 8.27196 6.2842 8.56959 6.89041 8.69017C7.49661 8.81076 8.12496 8.74887 8.696 8.51234C9.26703 8.27581 9.7551 7.87526 10.0985 7.36134C10.4419 6.84743 10.6252 6.24322 10.6252 5.62514C10.6242 4.79662 10.2946 4.00232 9.70875 3.41647C9.1229 2.83062 8.3286 2.50105 7.50008 2.50006ZM7.50008 7.50019C7.12923 7.50019 6.76671 7.39022 6.45836 7.18419C6.15001 6.97815 5.90968 6.68531 5.76776 6.34269C5.62584 6.00007 5.58871 5.62306 5.66106 5.25934C5.73341 4.89561 5.91199 4.56151 6.17422 4.29928C6.43645 4.03705 6.77055 3.85847 7.13428 3.78612C7.498 3.71377 7.87501 3.7509 8.21763 3.89282C8.56025 4.03474 8.85309 4.27507 9.05913 4.58342C9.26516 4.89177 9.37513 5.25429 9.37513 5.62514C9.37513 6.12243 9.17758 6.59936 8.82594 6.951C8.4743 7.30264 7.99738 7.50019 7.50008 7.50019Z" fill="#353437"/>
</svg>
