<svg width="19" height="19" viewBox="0 0 19 19" fill="none" xmlns="http://www.w3.org/2000/svg">
<g clip-path="url(#clip0_14_242)">
<path d="M0.761458 3.61688H2.84481C3.00824 4.21823 3.36502 4.74909 3.86008 5.12756C4.35515 5.50603 4.96099 5.71109 5.58415 5.71109C6.20732 5.71109 6.81316 5.50603 7.30823 5.12756C7.80329 4.74909 8.16006 4.21823 8.3235 3.61688H17.5135C17.7155 3.61688 17.9092 3.53665 18.052 3.39385C18.1948 3.25105 18.275 3.05737 18.275 2.85542C18.275 2.65347 18.1948 2.45979 18.052 2.31699C17.9092 2.17419 17.7155 2.09396 17.5135 2.09396H8.3235C8.16006 1.49262 7.80329 0.961755 7.30823 0.583283C6.81316 0.20481 6.20732 -0.000244141 5.58415 -0.000244141C4.96099 -0.000244141 4.35515 0.20481 3.86008 0.583283C3.36502 0.961755 3.00824 1.49262 2.84481 2.09396H0.761458C0.559507 2.09396 0.365827 2.17419 0.223026 2.31699C0.0802249 2.45979 0 2.65347 0 2.85542C0 3.05737 0.0802249 3.25105 0.223026 3.39385C0.365827 3.53665 0.559507 3.61688 0.761458 3.61688ZM5.58377 1.52287C5.84733 1.52287 6.10496 1.60102 6.3241 1.74744C6.54324 1.89387 6.71403 2.10198 6.81489 2.34548C6.91575 2.58897 6.94214 2.8569 6.89072 3.11539C6.8393 3.37388 6.71239 3.61132 6.52603 3.79768C6.33967 3.98404 6.10223 4.11095 5.84374 4.16237C5.58525 4.21379 5.31732 4.1874 5.07383 4.08654C4.83034 3.98568 4.62222 3.81488 4.4758 3.59575C4.32937 3.37661 4.25122 3.11898 4.25122 2.85542C4.25163 2.50213 4.39215 2.16342 4.64196 1.91361C4.89178 1.6638 5.23048 1.52327 5.58377 1.52287Z" fill="white"/>
<path d="M17.5135 8.37602H15.4302C15.267 7.77453 14.9104 7.24348 14.4154 6.86485C13.9203 6.48622 13.3145 6.28107 12.6912 6.28107C12.068 6.28107 11.4621 6.48622 10.9671 6.86485C10.4721 7.24348 10.1154 7.77453 9.95226 8.37602H0.761458C0.559507 8.37602 0.365827 8.45624 0.223026 8.59904C0.0802249 8.74184 0 8.93552 0 9.13748C0 9.33943 0.0802249 9.53311 0.223026 9.67591C0.365827 9.81871 0.559507 9.89893 0.761458 9.89893H9.95226C10.1154 10.5004 10.4721 11.0315 10.9671 11.4101C11.4621 11.7887 12.068 11.9939 12.6912 11.9939C13.3145 11.9939 13.9203 11.7887 14.4154 11.4101C14.9104 11.0315 15.267 10.5004 15.4302 9.89893H17.5135C17.7155 9.89893 17.9092 9.81871 18.052 9.67591C18.1948 9.53311 18.275 9.33943 18.275 9.13748C18.275 8.93552 18.1948 8.74184 18.052 8.59904C17.9092 8.45624 17.7155 8.37602 17.5135 8.37602ZM12.6912 10.47C12.4277 10.47 12.17 10.3919 11.9509 10.2455C11.7318 10.099 11.561 9.89091 11.4601 9.64742C11.3593 9.40393 11.3329 9.136 11.3843 8.87751C11.4357 8.61902 11.5626 8.38158 11.749 8.19522C11.9353 8.00886 12.1728 7.88194 12.4313 7.83053C12.6897 7.77911 12.9577 7.8055 13.2012 7.90636C13.4447 8.00722 13.6528 8.17801 13.7992 8.39715C13.9456 8.61629 14.0238 8.87392 14.0238 9.13748C14.0234 9.49077 13.8829 9.82947 13.633 10.0793C13.3832 10.3291 13.0445 10.4696 12.6912 10.47Z" fill="white"/>
<path d="M17.5135 14.6581H8.3235C8.16006 14.0567 7.80329 13.5258 7.30823 13.1474C6.81316 12.7689 6.20732 12.5638 5.58415 12.5638C4.96099 12.5638 4.35515 12.7689 3.86008 13.1474C3.36502 13.5258 3.00824 14.0567 2.84481 14.6581H0.761458C0.559507 14.6581 0.365827 14.7383 0.223026 14.8811C0.0802249 15.0239 0 15.2176 0 15.4195C0 15.6215 0.0802249 15.8151 0.223026 15.9579C0.365827 16.1007 0.559507 16.181 0.761458 16.181H2.84481C3.00824 16.7823 3.36502 17.3132 3.86008 17.6916C4.35515 18.0701 4.96099 18.2752 5.58415 18.2752C6.20732 18.2752 6.81316 18.0701 7.30823 17.6916C7.80329 17.3132 8.16006 16.7823 8.3235 16.181H17.5135C17.7155 16.181 17.9092 16.1007 18.052 15.9579C18.1948 15.8151 18.275 15.6215 18.275 15.4195C18.275 15.2176 18.1948 15.0239 18.052 14.8811C17.9092 14.7383 17.7155 14.6581 17.5135 14.6581ZM5.58377 16.7521C5.32022 16.7521 5.06258 16.6739 4.84345 16.5275C4.62431 16.3811 4.45351 16.1729 4.35266 15.9295C4.2518 15.686 4.22541 15.418 4.27683 15.1595C4.32824 14.9011 4.45516 14.6636 4.64152 14.4773C4.82788 14.2909 5.06532 14.164 5.32381 14.1126C5.5823 14.0611 5.85023 14.0875 6.09372 14.1884C6.33721 14.2892 6.54533 14.46 6.69175 14.6792C6.83817 14.8983 6.91633 15.156 6.91633 15.4195C6.91572 15.7727 6.77514 16.1113 6.52536 16.3611C6.27559 16.6109 5.937 16.7515 5.58377 16.7521Z" fill="white"/>
</g>
<defs>
<clipPath id="clip0_14_242">
<rect width="18.275" height="18.275" fill="white"/>
</clipPath>
</defs>
</svg>
