<svg width="25" height="25" viewBox="0 0 25 25" fill="none" xmlns="http://www.w3.org/2000/svg">
<path d="M6.26459 8.33972C6.38362 7.39833 7.60705 6.1189 8.578 6.26086L8.57645 6.25931C9.52137 6.43888 10.2694 8.06522 10.6911 8.79651C10.99 9.3271 10.7959 9.86469 10.5172 10.0915C10.1411 10.3946 9.55312 10.8128 9.67649 11.2327C9.89583 11.9792 12.5 14.5833 13.7808 15.3236C14.2656 15.6039 14.6172 14.8648 14.9174 14.4861C15.1355 14.1949 15.6735 14.0208 16.2029 14.3083C16.9935 14.7688 17.7383 15.3039 18.4271 15.9062C18.771 16.1938 18.8518 16.6186 18.6134 17.0677C18.1936 17.8586 16.9795 18.9017 16.0981 18.6897C14.5588 18.3196 8.33334 15.9062 6.33368 8.91459C6.22122 8.58383 6.24953 8.45879 6.26459 8.33972Z" fill="#25D366"/>
<path fill-rule="evenodd" clip-rule="evenodd" d="M12.5 23.9584C11.2254 23.9584 10.5202 23.8216 9.375 23.4376L7.1817 24.5342C5.79648 25.2269 4.16667 24.2196 4.16667 22.6708V20.3126C1.92349 18.2209 1.04167 15.8091 1.04167 12.5001C1.04167 6.17182 6.17174 1.04175 12.5 1.04175C18.8282 1.04175 23.9583 6.17182 23.9583 12.5001C23.9583 18.8283 18.8282 23.9584 12.5 23.9584ZM6.25 19.4066L5.58745 18.7888C3.84466 17.1638 3.125 15.3471 3.125 12.5001C3.125 7.32242 7.32234 3.12508 12.5 3.12508C17.6777 3.12508 21.875 7.32242 21.875 12.5001C21.875 17.6778 17.6777 21.8751 12.5 21.8751C11.4732 21.8751 10.9917 21.7824 10.0375 21.4624L9.21716 21.1873L6.25 22.6708V19.4066Z" fill="#25D366"/>
</svg>
